<svg width="104" height="65" viewBox="0 0 104 65" fill="none" xmlns="http://www.w3.org/2000/svg">
<path d="M60.2949 26.3033H46.2949C46.783 26.5982 47.6944 28.6559 53.7949 28.8033C59.4074 28.9508 59.3782 26.9394 60.2949 26.3033Z" fill="#0041A6"/>
<path d="M61.2949 15.3034H46.2949C46.783 15.1068 47.6944 12.4016 53.7949 12.3033C59.4074 12.2051 60.3782 14.8793 61.2949 15.3034Z" fill="#0041A6"/>
<path d="M95.4976 10.5509C98.5758 10.5509 101.314 11.2692 103.708 12.7091L103.803 12.7677L103.756 12.8693L103.005 14.4816L102.948 14.6056L102.83 14.5372C100.975 13.4567 98.9246 12.8267 96.6782 12.6466V30.4279H94.3716V12.6456C92.1613 12.8085 90.1015 13.4383 88.1919 14.5372L88.0747 14.6056L88.0171 14.4816L87.2661 12.8693L87.2183 12.7667L87.3159 12.7091C89.746 11.2698 92.4744 10.5509 95.4976 10.5509Z" fill="#0041A6" stroke="#0041A6" stroke-width="0.25"/>
<path d="M70.5205 10.7177V22.3798C70.5205 24.4177 71.0157 25.9387 71.9863 26.9637C72.9768 27.9902 74.3594 28.5106 76.1504 28.5106C78.0338 28.5105 79.4806 27.962 80.5078 26.8807C81.5524 25.7819 82.0859 24.1314 82.0859 21.9071V10.7177H84.3926V30.4286H82.1689V27.4745C80.8394 29.5581 78.6952 30.5956 75.7607 30.5956C73.4174 30.5956 71.5651 29.8907 70.2207 28.4706C68.8763 27.0503 68.2129 25.0321 68.2129 22.4354V10.7177H70.5205Z" fill="#0041A6" stroke="#0041A6" stroke-width="0.25"/>
<path d="M24.876 10.5927V48.0536H36.5527V10.5927H39.082V57.5536H36.5527V50.3602H24.876V57.5536H22.3184V10.5927H24.876Z" fill="#FF3030" stroke="#FF3030" stroke-width="0.5"/>
<path d="M11.2471 10.5509C12.371 10.5509 13.4672 10.7099 14.5352 11.0284H14.5342C15.6197 11.328 16.5591 11.7505 17.3506 12.297L17.4346 12.3546L17.3945 12.4484L16.6992 14.089L16.6416 14.2267L16.5156 14.1447C15.7108 13.6142 14.8516 13.2209 13.9375 12.965L13.9355 12.964C13.0196 12.6892 12.1234 12.5519 11.2471 12.5519C9.661 12.5519 8.45755 12.8437 7.62109 13.4103L7.45801 13.5275C6.63535 14.1534 6.22852 14.9607 6.22852 15.9581C6.22853 16.7082 6.4504 17.3045 6.88574 17.7589L7.06641 17.923C7.49986 18.2953 8.01748 18.5932 8.62109 18.8156H8.62012C9.33809 19.0547 10.2975 19.3215 11.499 19.6173C12.9291 19.9702 14.0851 20.3246 14.9639 20.6798H14.9629C15.8697 21.0203 16.6361 21.5501 17.2607 22.2687C17.8982 22.9834 18.2109 23.9526 18.2109 25.1603C18.2109 26.1664 17.9343 27.0882 17.3838 27.924L17.3848 27.9249C16.8495 28.7469 16.0212 29.4006 14.9111 29.8898H14.9102C13.797 30.3615 12.4352 30.5948 10.8301 30.5948C9.37101 30.5948 7.9669 30.3616 6.61914 29.8937L6.61816 29.8927C5.28956 29.4249 4.2509 28.8046 3.51074 28.0265L3.4502 27.962L3.49023 27.8839L4.2959 26.299L4.37402 26.1456L4.49609 26.2677C5.18505 26.9566 6.10488 27.522 7.25977 27.962H7.25879C8.41262 28.3832 9.60304 28.5939 10.8301 28.5939C12.5598 28.5938 13.8346 28.2801 14.6748 27.673C15.5166 27.0461 15.9316 26.2485 15.9316 25.2716C15.9316 24.5212 15.7002 23.935 15.2471 23.4991L15.2451 23.4972C14.7964 23.0485 14.2384 22.7053 13.5684 22.4698L13.5654 22.4689C12.8867 22.2121 11.9378 21.9358 10.7168 21.6398H10.7158C9.24956 21.2686 8.07678 20.9143 7.19922 20.5782L7.19629 20.5773C6.30756 20.2179 5.54115 19.6784 4.89844 18.9601L4.89746 18.9591C4.26093 18.2261 3.94924 17.2396 3.94922 16.0138C3.94922 15.0081 4.21543 14.0944 4.74805 13.2765C5.28276 12.4368 6.10057 11.7737 7.19238 11.2843C8.28802 10.7932 9.64148 10.5509 11.2471 10.5509Z" fill="#0041A6" stroke="#0041A6" stroke-width="0.25"/>
<path d="M53.6904 10.5509C55.6367 10.5509 57.3908 10.9814 58.9492 11.8448C60.5254 12.708 61.7649 13.9103 62.666 15.4493C63.5679 16.9713 64.0186 18.6807 64.0186 20.5734C64.0185 22.4659 63.5685 24.1837 62.667 25.7238V25.7247C61.7658 27.2455 60.5252 28.4368 58.9492 29.2999C57.3907 30.1636 55.6369 30.5948 53.6904 30.5948C51.7439 30.5948 49.9719 30.1641 48.377 29.3009L48.375 29.2999C46.7996 28.4183 45.5602 27.2169 44.6592 25.6964L44.6582 25.6954C43.7753 24.1738 43.335 22.4653 43.335 20.5734C43.335 18.6812 43.7752 16.9721 44.6582 15.4503L44.6592 15.4493C45.5604 13.9287 46.8 12.7363 48.376 11.8732L48.6768 11.713C50.193 10.9378 51.865 10.5509 53.6904 10.5509ZM53.6904 12.6359C52.1722 12.6359 50.794 12.9828 49.5537 13.6759L49.5527 13.6769C48.3312 14.3515 47.3658 15.2993 46.6543 16.5216L46.6533 16.5206C45.9609 17.7234 45.6143 19.0738 45.6143 20.5734C45.6143 22.0719 45.9613 23.4304 46.6533 24.6515C47.3647 25.8553 48.3306 26.8037 49.5527 27.4972L49.7871 27.6193C50.9663 28.2126 52.2666 28.5099 53.6904 28.5099C55.2094 28.5099 56.579 28.1719 57.8008 27.4972C59.0224 26.804 59.9782 25.8563 60.6709 24.6534C61.3638 23.4318 61.7109 22.0728 61.7109 20.5734C61.7109 19.0737 61.3644 17.7234 60.6719 16.5206H60.6709C59.978 15.2989 59.022 14.3514 57.8008 13.6769L57.7988 13.6759C56.5774 12.9832 55.2088 12.6359 53.6904 12.6359Z" fill="#0041A6" stroke="#0041A6" stroke-width="0.25"/>
<path d="M52.4692 55.1349C54.2299 55.1349 55.6478 54.5418 56.7228 53.3556L58.1684 55.0793C57.5197 55.8577 56.695 56.4508 55.6941 56.8585C54.7118 57.2663 53.6091 57.4702 52.3858 57.4702C50.829 57.4702 49.4482 57.1551 48.2435 56.5249C47.0388 55.8762 46.1028 54.9773 45.4356 53.8282C44.7869 52.6791 44.4626 51.3818 44.4626 49.9361C44.4626 48.509 44.7776 47.2209 45.4078 46.0718C46.0565 44.9227 46.9368 44.033 48.0489 43.4029C49.1794 42.7542 50.449 42.4299 51.8576 42.4299C53.192 42.4299 54.406 42.7357 55.4995 43.3473C56.593 43.9404 57.4641 44.7837 58.1128 45.8772C58.7615 46.9707 59.0951 48.231 59.1136 49.6581L47.4095 51.9378C47.7801 52.9571 48.401 53.7448 49.2721 54.3008C50.1617 54.8569 51.2274 55.1349 52.4692 55.1349ZM51.8576 44.6817C50.9309 44.6817 50.0969 44.8949 49.3555 45.3212C48.6327 45.7474 48.0674 46.3498 47.6597 47.1282C47.2519 47.8881 47.048 48.7777 47.048 49.7971V50.0751L56.4726 48.2959C56.2316 47.2209 55.6941 46.3498 54.8601 45.6826C54.0261 45.0153 53.0252 44.6817 51.8576 44.6817ZM67.3234 57.4702C65.8963 57.4702 64.7935 57.0809 64.0151 56.3025C63.2366 55.5056 62.8474 54.3935 62.8474 52.9664V36.6751H65.5163V52.744C65.5163 53.541 65.7017 54.1526 66.0723 54.5789C66.4615 55.0051 67.0361 55.2183 67.796 55.2183C68.2593 55.2183 68.6949 55.1256 69.1026 54.9403L69.2416 57.1365C68.63 57.3589 67.9906 57.4702 67.3234 57.4702ZM79.5916 42.4299C81.0187 42.4299 82.2976 42.7449 83.4281 43.3751C84.5587 44.0052 85.4391 44.8856 86.0692 46.0162C86.7179 47.1467 87.0423 48.4534 87.0423 49.9361C87.0423 51.4188 86.7179 52.7347 86.0692 53.8838C85.4391 55.0144 84.5587 55.8948 83.4281 56.5249C82.2976 57.1551 81.0187 57.4702 79.5916 57.4702C78.5352 57.4702 77.5621 57.2663 76.6725 56.8585C75.8014 56.4508 75.0601 55.8577 74.4484 55.0793V62.6967H71.7796V42.5689H74.3372V44.9041C74.9303 44.0886 75.6809 43.477 76.5891 43.0693C77.4973 42.643 78.4981 42.4299 79.5916 42.4299ZM79.3692 55.1349C80.3144 55.1349 81.1577 54.9217 81.8991 54.4955C82.659 54.0506 83.2521 53.439 83.6783 52.6606C84.1232 51.8636 84.3456 50.9555 84.3456 49.9361C84.3456 48.9167 84.1232 48.0178 83.6783 47.2394C83.2521 46.4425 82.659 45.8308 81.8991 45.4046C81.1577 44.9783 80.3144 44.7651 79.3692 44.7651C78.4425 44.7651 77.5992 44.9875 76.8393 45.4324C76.098 45.8586 75.5049 46.461 75.0601 47.2394C74.6338 48.0178 74.4206 48.9167 74.4206 49.9361C74.4206 50.9555 74.6338 51.8636 75.0601 52.6606C75.4863 53.439 76.0794 54.0506 76.8393 54.4955C77.5992 54.9217 78.4425 55.1349 79.3692 55.1349Z" fill="#FF3030"/>
<path d="M24.2949 49.3033H3.29492L16.7948 35.3033" stroke="#FF3030" stroke-width="2.8" stroke-linecap="round"/>
<path d="M50.5148 3.89788L43.0732 0.303345L42.9039 0.816328L46.5553 3.25441L41.8063 5.28959L41.979 5.91548L50.5148 3.89788Z" fill="#0041A6" stroke="#0041A6" stroke-width="0.434389"/>
<path d="M56.0751 3.89788L63.5166 0.303345L63.686 0.816328L60.0345 3.25441L64.7835 5.28959L64.6109 5.91548L56.0751 3.89788Z" fill="#0041A6" stroke="#0041A6" stroke-width="0.434389"/>
</svg>
